<?xml version="1.0" encoding="UTF-8" standalone="no"?>
<!-- Created with Inkscape (http://www.inkscape.org/) -->

<svg
   version="1.1"
   id="svg1"
   width="1024"
   height="1024"
   viewBox="0 0 1024 1024"
   xmlns="http://www.w3.org/2000/svg"
   xmlns:svg="http://www.w3.org/2000/svg">
  <defs
     id="defs1" />
  <g
     id="g1">
    <path
       style="fill:#000000"
       d="M 497.62641,912.44159 C 457.23767,908.62121 398.91274,888.49049 333.78363,855.89163 249.60747,813.75921 196.30974,770.4116 168.07751,721.12109 c -10.51439,-18.35703 -17.9392,-37.5889 -23.91757,-61.95168 -18.08152,-73.68507 -5.14762,-169.11458 34.92382,-257.67656 3.32346,-7.34519 6.04265,-13.96571 6.04265,-14.71228 0,-0.74657 -2.26327,-8.63839 -5.02949,-17.53739 -12.06054,-38.79899 -23.48618,-93.71275 -25.52543,-122.67998 -0.32911,-4.675 -0.7912,-9.10532 -1.02686,-9.84515 -0.23566,-0.73983 -0.71299,-11.53983 -1.06074,-24 -1.04136,-37.31316 2.82613,-70.44374 9.88216,-84.65485 6.9996,-14.09745 17.81163,-15.1043 43.25014,-4.0276 43.50625,18.94394 101.97076,58.61805 163.46864,110.93008 6.85213,5.82864 13.21353,10.59752 14.13644,10.59752 0.92292,0 8.14163,-1.55237 16.04159,-3.4497 75.51025,-18.13534 161.8825,-17.9271 237.75622,0.5732 6.81596,1.66193 13.34096,2.76633 14.5,2.45421 1.15903,-0.31211 6.38233,-4.18992 11.60733,-8.61733 69.6001,-58.9758 137.15742,-103.66529 176.77774,-116.93932 22.46217,-7.52552 31.02653,-1.96561 36.73788,23.84992 3.44658,15.57865 4.77363,30.826 4.88518,56.12902 0.17795,40.36299 -3.31132,69.99447 -13.90295,118.06618 -4.27341,19.39553 -11.1011,44.56013 -15.96968,58.85897 -3.30574,9.70886 -3.20279,11.78517 0.99804,20.12689 11.34093,22.52009 23.86016,57.34796 31.07458,86.44796 11.36339,45.83523 15.74707,85.26559 13.55553,121.92918 -5.76763,96.48967 -41.48823,154.84469 -130.32422,212.90439 -36.37089,23.77058 -84.91285,48.68683 -129.8321,66.64192 -58.58426,23.41725 -99.7894,31.65914 -139.5,27.9029 z"
       id="path1" />
  </g>
</svg>
